<svg width="360" height="180" viewBox="0 0 360 180" fill="none" xmlns="http://www.w3.org/2000/svg">
  <rect width="360" height="180" rx="32" fill="url(#bg-gradient)" />
  <g filter="url(#shadow)">
    <rect x="40" y="40" width="60" height="60" rx="12" fill="#0EA5E9" fill-opacity="0.14"/>
    <rect x="260" y="50" width="50" height="50" rx="12" fill="#059669" fill-opacity="0.16"/>
    <rect x="140" y="100" width="80" height="40" rx="10" fill="#A21CAF" fill-opacity="0.12"/>
    <circle cx="90" cy="130" r="22" fill="#DB2777" fill-opacity="0.13"/>
    <circle cx="300" cy="120" r="18" fill="#F59E42" fill-opacity="0.13"/>
    <rect x="180" y="30" width="30" height="30" rx="8" fill="#6366F1" fill-opacity="0.12"/>
    <rect x="240" y="110" width="32" height="32" rx="8" fill="#F59E42" fill-opacity="0.10"/>
  </g>
  <g>
    <!-- Code Brackets -->
    <path d="M120 90 L110 80 L120 70" stroke="#0EA5E9" stroke-width="3" stroke-linecap="round" stroke-linejoin="round"/>
    <path d="M240 90 L250 80 L240 70" stroke="#0EA5E9" stroke-width="3" stroke-linecap="round" stroke-linejoin="round"/>
    <!-- Game Controller -->
    <rect x="155" y="65" width="50" height="30" rx="12" fill="#A21CAF" fill-opacity="0.15"/>
    <ellipse cx="180" cy="80" rx="18" ry="12" fill="#A21CAF" fill-opacity="0.25"/>
    <circle cx="172" cy="80" r="2.5" fill="#fff"/>
    <circle cx="188" cy="80" r="2.5" fill="#fff"/>
    <rect x="178" y="74" width="4" height="12" rx="2" fill="#fff"/>
    <!-- AI Brain -->
    <ellipse cx="220" cy="125" rx="12" ry="8" fill="#059669" fill-opacity="0.18"/>
    <ellipse cx="220" cy="125" rx="6" ry="4" fill="#059669" fill-opacity="0.28"/>
    <!-- Paintbrush (Design) -->
    <rect x="80" y="60" width="6" height="24" rx="3" fill="#DB2777"/>
    <rect x="78" y="82" width="10" height="8" rx="4" fill="#F59E42"/>
    <!-- Cloud (Consulting/Infra) -->
    <ellipse cx="270" cy="60" rx="12" ry="7" fill="#6366F1" fill-opacity="0.18"/>
    <ellipse cx="280" cy="62" rx="8" ry="5" fill="#6366F1" fill-opacity="0.12"/>
  </g>
  <defs>
    <linearGradient id="bg-gradient" x1="0" y1="0" x2="360" y2="180" gradientUnits="userSpaceOnUse">
      <stop stop-color="#F0FDFA"/>
      <stop offset="1" stop-color="#DBEAFE"/>
    </linearGradient>
    <filter id="shadow" x="0" y="0" width="360" height="180" filterUnits="userSpaceOnUse" color-interpolation-filters="sRGB">
      <feDropShadow dx="0" dy="8" stdDeviation="12" flood-opacity="0.12"/>
    </filter>
  </defs>
</svg>
